# xmcd CD database file
#
# Track frame offsets:
#	150
#	15577
#	72909
#	87504
#	165713
#
# Disc length: 2703 seconds
#
# Revision: 0
# Processed by: cddbd v1.5.1PL2 Copyright (c) Steve Scherf et al.
# Submitted via: CDex 1.51
#
DISCID=380a8d05
DTITLE=Kurt Tepperwein - Slim und Fit - Schlank Schoen und Fit
DYEAR=2005
DGENRE=New Age
TTITLE0=SlimFit 1 Affirmationen
TTITLE1=SlimFit 2 Subliminar
TTITLE2=SlimFit 3 Affirmationen
TTITLE3=SlimFit 4 Subliminar
TTITLE4=SlimFit 5 Repeat Affirmation
EXTD=YEAR: 2005
EXTT0=
EXTT1=
EXTT2=
EXTT3=
EXTT4=
PLAYORDER=
